<svg xmlns="http://www.w3.org/2000/svg" width="24" height="24" fill="none" viewBox="0 0 24 24"><g stroke="#fff" stroke-linecap="round" stroke-linejoin="round"><path fill="#fff" stroke-width="1.5" d="M20.25 14.93v3.3c0 1.23-1.09 2.17-2.31 2C10.6 19.21 4.79 13.4 3.77 6.06c-.17-1.22.77-2.31 2-2.31h3.3a1 1 0 0 1 .99.83l.39 2.19c.14.77-.18 1.55-.82 2l-1.85 1.59c1.43 2.41 3.46 4.42 5.88 5.84l1.57-1.82c.45-.64 1.23-.96 2-.82l2.19.39c.48.09.83.5.83.99z"/><path stroke-width="2" d="M20.12 10.03a6.11 6.11 0 0 0-6.11-6.11m2.67 6.11c0-1.48-1.2-2.67-2.67-2.67"/><path fill="#fff" stroke-width="1.5" d="M20.25 14.93v3.3c0 1.23-1.09 2.17-2.31 2C10.6 19.21 4.79 13.4 3.77 6.06c-.17-1.22.77-2.31 2-2.31h3.3a1 1 0 0 1 .99.83l.39 2.19c.14.77-.18 1.55-.82 2l-1.85 1.59c1.43 2.41 3.46 4.42 5.88 5.84l1.57-1.82c.45-.64 1.23-.96 2-.82l2.19.39c.48.09.83.5.83.99z"/></g></svg>