<svg xmlns="http://www.w3.org/2000/svg" width="25" height="24" fill="none" viewBox="0 0 25 24"><mask id="QKpbaR2nXla" width="21" height="16" x="2" y="4" maskUnits="userSpaceOnUse" style="mask-type:alpha"><path fill="#BABBBC" d="M2.5 5.75C2.5 4.784 3.284 4 4.25 4h16.5c.966 0 1.75.784 1.75 1.75V8h-20z"/><path fill="#BABBBC" fill-rule="evenodd" d="M2.5 10v8.25c0 .966.784 1.75 1.75 1.75h16.5a1.75 1.75 0 0 0 1.75-1.75V10zM4 16a1 1 0 0 1 1-1h4a1 1 0 1 1 0 2H5a1 1 0 0 1-1-1" clip-rule="evenodd"/></mask><g mask="url(#QKpbaR2nXla)"><rect width="18.5" height="14.5" x="3.25" y="4.75" fill="#fff" stroke="#fff" stroke-width="1.5" rx="1"/></g></svg>