<svg xmlns="http://www.w3.org/2000/svg" width="430" height="430" fill="none" viewBox="0 0 430 430"><path fill="#fff" d="M55 350c0-63.513 51.487-115 115-115h90c63.513 0 115 51.487 115 115v25H55z"/><path fill="#fff" d="M170 235c-63.513 0-115 51.487-115 115v25h55v-25c0-63.513 51.487-115 115-115z" opacity=".5" style="mix-blend-mode:multiply"/><path fill="#fff" d="M272.496 76.733C283.423 89.78 290 106.648 290 125c0 41.478-33.628 75-75 75s-75-33.628-75-75 33.628-75 75-75c23.126 0 43.706 10.396 57.496 26.733"/><path fill="#fff" d="M265.319 180.618A74.9 74.9 0 0 1 240 185c-41.372 0-75-33.628-75-75 0-22.046 9.548-41.892 24.728-55.623C160.762 64.766 140 92.492 140 125c0 41.372 33.628 75 75 75 19.349 0 37.005-7.333 50.319-19.382" opacity=".5" style="mix-blend-mode:multiply"/><path stroke="#fff" stroke-linejoin="round" stroke-width="7" d="M55 350c0-63.513 51.487-115 115-115h90c63.513 0 115 51.487 115 115v25H55z"/><path stroke="#fff" stroke-linecap="round" stroke-linejoin="round" stroke-miterlimit="27.88" stroke-width="7" d="M272.496 76.733C283.423 89.78 290 106.648 290 125c0 41.478-33.628 75-75 75s-75-33.628-75-75 33.628-75 75-75c23.126 0 43.706 10.396 57.496 26.733"/></svg>